<svg width="51" height="44" viewBox="0 0 51 44" fill="none" xmlns="http://www.w3.org/2000/svg">
<path d="M36.3077 28.9577H42.6535C42.1408 29.4436 41.6126 29.916 41.0687 30.375C36.2077 34.504 31.2733 38.5547 26.3633 42.6329C25.4987 43.3532 24.7941 43.3468 23.9183 42.6329C20.013 39.4254 16.1011 36.2264 12.2136 32.9999C10.6444 31.6991 9.10179 30.3687 7.65259 28.9577H13.9695V16.9414C15.1587 18.6511 16.3411 20.2506 17.5036 21.814C19.5685 24.6063 21.7045 27.4938 23.7917 30.9089L25.1364 33.11L26.47 30.9089C28.5571 27.4938 30.6931 24.6063 32.758 21.814C33.9205 20.2442 35.103 18.6362 36.2921 16.9414L36.3077 28.9577Z" fill="#A30621"/>
<path d="M47.2699 23.6355C46.7053 24.4519 46.1045 25.2371 45.4673 25.9913H39.4215V6.2678L36.5209 11.0154C34.436 14.4305 32.2978 17.3181 30.2329 20.1103C28.5658 22.3644 26.8544 24.6778 25.1451 27.2964C23.4336 24.6778 21.7221 22.3644 20.0551 20.1103C17.9902 17.3181 15.8542 14.4305 13.7671 11.0154L10.8776 6.26992V25.9913H4.85403C4.56656 25.6566 4.28576 25.3169 4.01163 24.9723C2.42684 22.983 1.14212 20.8369 0.519758 18.3879C0.284152 17.4558 0.173015 16.494 0.00408936 15.5449V13.5725C0.0352072 13.3903 0.0752189 13.2102 0.0974459 13.0259C0.555323 9.08545 2.20457 5.72545 5.58308 3.31456C8.89491 0.948162 12.6291 0.270232 16.6388 1.28925C19.5683 2.03497 21.8088 3.77005 23.6048 6.04535C24.1515 6.73599 24.6317 7.47324 25.1273 8.16389C25.8141 7.24656 26.4409 6.29534 27.1878 5.43734C29.5127 2.76798 32.4356 1.0901 36.1319 0.865539C39.0011 0.698535 41.8479 1.4379 44.2316 2.96912C46.6152 4.50034 48.4027 6.73797 49.317 9.33543C51.1396 14.4199 50.3506 19.1781 47.2699 23.6355Z" fill="#D8293D"/>
</svg>
