<svg width="164" height="44" viewBox="0 0 164 44" fill="none" xmlns="http://www.w3.org/2000/svg">
<path d="M58.5231 28.9577H64.6812C64.1837 29.4436 63.6711 29.916 63.1433 30.375C58.4261 34.504 53.6377 38.5547 48.873 42.6329C48.0339 43.3532 47.3502 43.3468 46.5003 42.6329C42.7106 39.4254 38.9144 36.2264 35.1419 32.9999C33.6191 31.6991 32.1221 30.3687 30.7158 28.9577H36.8459V16.9414C37.9998 18.6511 39.1473 20.2506 40.2754 21.814C42.2792 24.6063 44.352 27.4938 46.3774 30.9089L47.6823 33.11L48.9765 30.9089C51.0019 27.4938 53.0747 24.6063 55.0785 21.814C56.2066 20.2442 57.3541 18.6362 58.508 16.9414L58.5231 28.9577Z" fill="#A30621"/>
<path d="M69.1614 23.6355C68.6135 24.4519 68.0304 25.2371 67.4121 25.9913H61.5452V6.2678L58.7304 11.0154C56.7072 14.4305 54.6322 17.3181 52.6284 20.1103C51.0107 22.3644 49.3498 24.6778 47.6911 27.2964C46.0303 24.6778 44.3694 22.3644 42.7517 20.1103C40.7479 17.3181 38.6751 14.4305 36.6497 11.0154L33.8457 6.26992V25.9913H28.0004C27.7214 25.6566 27.4489 25.3169 27.1829 24.9723C25.645 22.983 24.3983 20.8369 23.7944 18.3879C23.5657 17.4558 23.4579 16.494 23.2939 15.5449V13.5725C23.3241 13.3903 23.363 13.2102 23.3845 13.0259C23.8289 9.08545 25.4293 5.72545 28.7079 3.31456C31.9217 0.948162 35.5454 0.270232 39.4365 1.28925C42.2794 2.03497 44.4536 3.77005 46.1964 6.04535C46.727 6.73599 47.1929 7.47324 47.6739 8.16389C48.3404 7.24656 48.9486 6.29534 49.6734 5.43734C51.9295 2.76798 54.7659 1.0901 58.3529 0.865539C61.1372 0.698535 63.8998 1.4379 66.2129 2.96912C68.5261 4.50034 70.2606 6.73797 71.1479 9.33543C72.9166 14.4199 72.1509 19.1781 69.1614 23.6355Z" fill="#D8293D"/>
<mask id="mask0_531_4292" style="mask-type:alpha" maskUnits="userSpaceOnUse" x="0" y="3" width="164" height="29">
<rect y="3.94922" width="164" height="28.0156" fill="#D9D9D9"/>
</mask>
<g mask="url(#mask0_531_4292)">
<path d="M18.4941 26.2463H9.30554L8.02863 29.9452C7.97099 30.1129 7.86137 30.2586 7.71515 30.3619C7.56893 30.4652 7.39345 30.521 7.21331 30.5215H2.77432C2.63599 30.5211 2.49978 30.488 2.37719 30.4251C2.25459 30.3621 2.1492 30.2712 2.0699 30.1598C1.9906 30.0485 1.93972 29.9201 1.92154 29.7854C1.90337 29.6507 1.91843 29.5137 1.96546 29.3859L10.0001 7.56505C10.1358 7.19621 10.3841 6.87746 10.7111 6.65226C11.038 6.42706 11.4277 6.30637 11.827 6.30664H16.0525C16.4518 6.30637 16.8415 6.42706 17.1684 6.65226C17.4954 6.87746 17.7436 7.19621 17.8794 7.56505L25.914 29.3859C25.961 29.5137 25.9761 29.6507 25.9579 29.7854C25.9398 29.9201 25.8889 30.0485 25.8096 30.1598C25.7303 30.2712 25.6249 30.3621 25.5023 30.4251C25.3797 30.488 25.2435 30.5211 25.1052 30.5215H20.595C20.4148 30.521 20.2394 30.4652 20.0931 30.3619C19.9469 30.2586 19.8373 30.1129 19.7797 29.9452L18.4941 26.2463ZM16.9498 21.6935L13.8955 12.8317L10.8758 21.6935H16.9498Z" fill="#0E2657"/>
<path d="M92.479 20.1943C93.3331 21.2595 93.7898 22.5799 93.7732 23.9356C93.7732 25.9581 93.0542 27.5618 91.6163 28.7468C90.1783 29.9317 88.1709 30.5235 85.5941 30.5221H75.1976C74.9116 30.5221 74.6373 30.4105 74.435 30.2119C74.2328 30.0132 74.1191 29.7438 74.1191 29.4628V7.37079C74.1191 7.08985 74.2328 6.82042 74.435 6.62177C74.6373 6.42312 74.9116 6.31152 75.1976 6.31152H85.2166C87.7216 6.31152 89.6822 6.87647 91.0986 8.00635C92.515 9.13623 93.2232 10.6651 93.2232 12.593C93.2232 14.0194 92.8428 15.2037 92.0822 16.1457C91.3059 17.0984 90.243 17.7858 89.0452 18.1096C90.4089 18.3736 91.6289 19.1142 92.479 20.1943ZM80.1198 16.1076H84.067C85.0505 16.1076 85.8055 15.8958 86.3318 15.4721C86.8581 15.0483 87.1212 14.422 87.1212 13.5929C87.1212 12.7653 86.8581 12.1332 86.3318 11.6968C85.8055 11.2604 85.0505 11.0415 84.067 11.0401H80.1262L80.1198 16.1076ZM86.8796 25.0902C87.4275 24.6425 87.7021 23.9935 87.7036 23.1433C87.7228 22.7676 87.6552 22.3925 87.5058 22.0461C87.3563 21.6997 87.129 21.3911 86.8408 21.1434C86.2656 20.6603 85.4747 20.4188 84.4682 20.4188H80.1262V25.7639H84.5501C85.5567 25.7639 86.3354 25.5393 86.8861 25.0902H86.8796Z" fill="#0E2657"/>
<path d="M100.99 6.3155C101.22 6.31828 101.44 6.40991 101.601 6.57052C101.763 6.73112 101.853 6.94777 101.853 7.17351V20.802C101.853 22.2497 102.213 23.3647 102.932 24.1472C103.65 24.9296 104.715 25.3201 106.126 25.3187C107.529 25.3187 108.608 24.9282 109.361 24.1472C110.115 23.3662 110.494 22.2511 110.5 20.802V7.17351C110.499 7.06044 110.52 6.94822 110.564 6.84348C110.607 6.73874 110.671 6.64359 110.753 6.56363C110.834 6.48367 110.931 6.42053 111.038 6.37791C111.144 6.3353 111.259 6.31407 111.374 6.3155H115.629C115.744 6.31549 115.857 6.33776 115.962 6.381C116.068 6.42425 116.163 6.48762 116.243 6.56743C116.324 6.64725 116.387 6.74192 116.43 6.84596C116.472 6.95 116.494 7.06133 116.492 7.17351V20.7639C116.492 22.9248 116.024 24.7524 115.088 26.2467C114.189 27.7078 112.878 28.8815 111.313 29.6257C109.668 30.3962 107.864 30.7841 106.042 30.7591C104.239 30.7902 102.453 30.4064 100.828 29.6384C99.2977 28.893 98.0312 27.7117 97.194 26.2488C96.3025 24.7432 95.8575 22.9071 95.8589 20.7406V7.17351C95.8589 7.06065 95.8816 6.94891 95.9256 6.84467C95.9696 6.74043 96.0342 6.64575 96.1155 6.56605C96.1969 6.48635 96.2934 6.42319 96.3997 6.3802C96.5059 6.33721 96.6197 6.31522 96.7346 6.3155H100.99Z" fill="#0E2657"/>
<path d="M125.64 25.9691H132.648C132.877 25.9691 133.097 26.0583 133.258 26.2173C133.42 26.3762 133.511 26.5917 133.511 26.8165V29.6871C133.511 29.9118 133.42 30.1274 133.258 30.2863C133.097 30.4452 132.877 30.5345 132.648 30.5345H119.638V7.04633C119.638 6.85248 119.716 6.66658 119.856 6.52951C119.995 6.39244 120.184 6.31543 120.382 6.31543H124.896C124.994 6.31515 125.091 6.33387 125.181 6.3705C125.272 6.40713 125.354 6.46096 125.423 6.52888C125.492 6.59681 125.547 6.67749 125.584 6.76629C125.622 6.8551 125.641 6.95027 125.64 7.04633V25.9691Z" fill="#0E2657"/>
<path d="M151.939 26.2463H142.736L141.39 30.1486C141.352 30.2572 141.281 30.3515 141.186 30.4184C141.092 30.4853 140.978 30.5213 140.861 30.5215H135.771C135.681 30.5216 135.593 30.5006 135.514 30.4601C135.434 30.4197 135.366 30.361 135.314 30.289C135.263 30.2171 135.23 30.134 135.218 30.0469C135.206 29.9597 135.216 29.8711 135.247 29.7885L143.594 7.12016C143.682 6.88177 143.843 6.67581 144.054 6.53026C144.266 6.38471 144.518 6.30663 144.776 6.30664H149.953C150.211 6.30663 150.463 6.38471 150.674 6.53026C150.886 6.67581 151.047 6.88177 151.135 7.12016L159.482 29.7885C159.513 29.8711 159.522 29.9597 159.511 30.0469C159.499 30.134 159.466 30.2171 159.414 30.289C159.363 30.361 159.295 30.4197 159.215 30.4601C159.136 30.5006 159.048 30.5216 158.958 30.5215H153.796C153.68 30.5212 153.567 30.4851 153.472 30.4182C153.378 30.3513 153.307 30.257 153.27 30.1486L151.939 26.2463ZM150.395 21.6935L147.341 12.8317L144.321 21.6935H150.395Z" fill="#0E2657"/>
</g>
</svg>
