<svg width="240" height="59" viewBox="0 0 240 59" fill="none" xmlns="http://www.w3.org/2000/svg">
<rect width="220" height="59" rx="5" fill="black"/>
<path d="M82.8295 43H80.6136L87.0227 25.5455H89.2045L95.6136 43H93.3977L88.1818 28.3068H88.0455L82.8295 43ZM83.6477 36.1818H92.5795V38.0568H83.6477V36.1818ZM98.0597 47.9091V29.9091H100.003V31.9886H100.241C100.389 31.7614 100.594 31.4716 100.855 31.1193C101.122 30.7614 101.503 30.4432 101.997 30.1648C102.497 29.8807 103.173 29.7386 104.026 29.7386C105.128 29.7386 106.099 30.0142 106.94 30.5653C107.781 31.1165 108.438 31.8977 108.909 32.9091C109.381 33.9205 109.616 35.1136 109.616 36.4886C109.616 37.875 109.381 39.0767 108.909 40.0938C108.438 41.1051 107.784 41.8892 106.949 42.446C106.114 42.9972 105.151 43.2727 104.06 43.2727C103.219 43.2727 102.545 43.1335 102.04 42.8551C101.534 42.571 101.145 42.25 100.872 41.892C100.599 41.5284 100.389 41.2273 100.241 40.9886H100.071V47.9091H98.0597ZM100.037 36.4545C100.037 37.4432 100.182 38.3153 100.472 39.071C100.761 39.821 101.185 40.4091 101.741 40.8352C102.298 41.2557 102.98 41.4659 103.787 41.4659C104.628 41.4659 105.33 41.2443 105.892 40.8011C106.46 40.3523 106.886 39.75 107.17 38.9943C107.46 38.233 107.605 37.3864 107.605 36.4545C107.605 35.5341 107.463 34.7045 107.179 33.9659C106.901 33.2216 106.477 32.6335 105.909 32.2017C105.347 31.7642 104.639 31.5455 103.787 31.5455C102.969 31.5455 102.281 31.7528 101.724 32.1676C101.168 32.5767 100.747 33.1506 100.463 33.8892C100.179 34.6222 100.037 35.4773 100.037 36.4545ZM112.685 47.9091V29.9091H114.628V31.9886H114.866C115.014 31.7614 115.219 31.4716 115.48 31.1193C115.747 30.7614 116.128 30.4432 116.622 30.1648C117.122 29.8807 117.798 29.7386 118.651 29.7386C119.753 29.7386 120.724 30.0142 121.565 30.5653C122.406 31.1165 123.063 31.8977 123.534 32.9091C124.006 33.9205 124.241 35.1136 124.241 36.4886C124.241 37.875 124.006 39.0767 123.534 40.0938C123.063 41.1051 122.409 41.8892 121.574 42.446C120.739 42.9972 119.776 43.2727 118.685 43.2727C117.844 43.2727 117.17 43.1335 116.665 42.8551C116.159 42.571 115.77 42.25 115.497 41.892C115.224 41.5284 115.014 41.2273 114.866 40.9886H114.696V47.9091H112.685ZM114.662 36.4545C114.662 37.4432 114.807 38.3153 115.097 39.071C115.386 39.821 115.81 40.4091 116.366 40.8352C116.923 41.2557 117.605 41.4659 118.412 41.4659C119.253 41.4659 119.955 41.2443 120.517 40.8011C121.085 40.3523 121.511 39.75 121.795 38.9943C122.085 38.233 122.23 37.3864 122.23 36.4545C122.23 35.5341 122.088 34.7045 121.804 33.9659C121.526 33.2216 121.102 32.6335 120.534 32.2017C119.972 31.7642 119.264 31.5455 118.412 31.5455C117.594 31.5455 116.906 31.7528 116.349 32.1676C115.793 32.5767 115.372 33.1506 115.088 33.8892C114.804 34.6222 114.662 35.4773 114.662 36.4545ZM136.582 32.8409L134.776 33.3523C134.662 33.0511 134.494 32.7585 134.273 32.4744C134.057 32.1847 133.761 31.946 133.386 31.7585C133.011 31.571 132.531 31.4773 131.946 31.4773C131.145 31.4773 130.477 31.6619 129.943 32.0312C129.415 32.3949 129.151 32.858 129.151 33.4205C129.151 33.9205 129.332 34.3153 129.696 34.6051C130.06 34.8949 130.628 35.1364 131.401 35.3295L133.344 35.8068C134.514 36.0909 135.386 36.5256 135.96 37.1108C136.534 37.6903 136.821 38.4375 136.821 39.3523C136.821 40.1023 136.605 40.7727 136.173 41.3636C135.747 41.9545 135.151 42.4205 134.384 42.7614C133.616 43.1023 132.724 43.2727 131.707 43.2727C130.372 43.2727 129.267 42.983 128.392 42.4034C127.517 41.8239 126.963 40.9773 126.73 39.8636L128.639 39.3864C128.821 40.0909 129.165 40.6193 129.67 40.9716C130.182 41.3239 130.849 41.5 131.673 41.5C132.611 41.5 133.355 41.3011 133.906 40.9034C134.463 40.5 134.741 40.017 134.741 39.4545C134.741 39 134.582 38.6193 134.264 38.3125C133.946 38 133.457 37.767 132.798 37.6136L130.616 37.1023C129.418 36.8182 128.537 36.3778 127.974 35.7812C127.418 35.179 127.139 34.4261 127.139 33.5227C127.139 32.7841 127.347 32.1307 127.761 31.5625C128.182 30.9943 128.753 30.5483 129.474 30.2244C130.202 29.9006 131.026 29.7386 131.946 29.7386C133.241 29.7386 134.259 30.0227 134.997 30.5909C135.741 31.1591 136.27 31.9091 136.582 32.8409ZM145.542 29.9091V31.6136H138.758V29.9091H145.542ZM140.735 26.7727H142.746V39.25C142.746 39.8182 142.829 40.2443 142.994 40.5284C143.164 40.8068 143.38 40.9943 143.641 41.0909C143.908 41.1818 144.19 41.2273 144.485 41.2273C144.707 41.2273 144.888 41.2159 145.031 41.1932C145.173 41.1648 145.286 41.142 145.371 41.125L145.781 42.9318C145.644 42.983 145.454 43.0341 145.21 43.0852C144.965 43.142 144.656 43.1705 144.281 43.1705C143.712 43.1705 143.156 43.0483 142.61 42.804C142.07 42.5597 141.621 42.1875 141.263 41.6875C140.911 41.1875 140.735 40.5568 140.735 39.7955V26.7727ZM153.745 43.2727C152.563 43.2727 151.526 42.9915 150.634 42.429C149.748 41.8665 149.055 41.0795 148.555 40.0682C148.06 39.0568 147.813 37.875 147.813 36.5227C147.813 35.1591 148.06 33.9687 148.555 32.9517C149.055 31.9347 149.748 31.1449 150.634 30.5824C151.526 30.0199 152.563 29.7386 153.745 29.7386C154.927 29.7386 155.961 30.0199 156.847 30.5824C157.739 31.1449 158.433 31.9347 158.927 32.9517C159.427 33.9687 159.677 35.1591 159.677 36.5227C159.677 37.875 159.427 39.0568 158.927 40.0682C158.433 41.0795 157.739 41.8665 156.847 42.429C155.961 42.9915 154.927 43.2727 153.745 43.2727ZM153.745 41.4659C154.643 41.4659 155.381 41.2358 155.961 40.7756C156.54 40.3153 156.969 39.7102 157.248 38.9602C157.526 38.2102 157.665 37.3977 157.665 36.5227C157.665 35.6477 157.526 34.8324 157.248 34.0767C156.969 33.321 156.54 32.7102 155.961 32.2443C155.381 31.7784 154.643 31.5455 153.745 31.5455C152.847 31.5455 152.109 31.7784 151.529 32.2443C150.95 32.7102 150.521 33.321 150.242 34.0767C149.964 34.8324 149.825 35.6477 149.825 36.5227C149.825 37.3977 149.964 38.2102 150.242 38.9602C150.521 39.7102 150.95 40.3153 151.529 40.7756C152.109 41.2358 152.847 41.4659 153.745 41.4659ZM162.747 43V29.9091H164.69V31.8864H164.827C165.065 31.2386 165.497 30.7131 166.122 30.3097C166.747 29.9062 167.452 29.7045 168.236 29.7045C168.384 29.7045 168.568 29.7074 168.79 29.7131C169.011 29.7187 169.179 29.7273 169.293 29.7386V31.7841C169.224 31.767 169.068 31.7415 168.824 31.7074C168.585 31.6676 168.332 31.6477 168.065 31.6477C167.429 31.6477 166.861 31.7812 166.361 32.0483C165.866 32.3097 165.474 32.6733 165.185 33.1392C164.901 33.5994 164.759 34.125 164.759 34.7159V43H162.747ZM176.767 43.2727C175.506 43.2727 174.418 42.9943 173.503 42.4375C172.594 41.875 171.892 41.0909 171.398 40.0852C170.909 39.0739 170.665 37.8977 170.665 36.5568C170.665 35.2159 170.909 34.0341 171.398 33.0114C171.892 31.983 172.58 31.1818 173.46 30.608C174.347 30.0284 175.381 29.7386 176.562 29.7386C177.244 29.7386 177.918 29.8523 178.582 30.0795C179.247 30.3068 179.852 30.6761 180.398 31.1875C180.943 31.6932 181.378 32.3636 181.702 33.1989C182.026 34.0341 182.188 35.0625 182.188 36.2841V37.1364H172.097V35.3977H180.142C180.142 34.6591 179.994 34 179.699 33.4205C179.409 32.8409 178.994 32.3835 178.455 32.0483C177.92 31.7131 177.29 31.5455 176.562 31.5455C175.761 31.5455 175.068 31.7443 174.483 32.142C173.903 32.5341 173.457 33.0455 173.145 33.6761C172.832 34.3068 172.676 34.983 172.676 35.7045V36.8636C172.676 37.8523 172.847 38.6903 173.188 39.3778C173.534 40.0597 174.014 40.5795 174.628 40.9375C175.241 41.2898 175.955 41.4659 176.767 41.4659C177.295 41.4659 177.773 41.392 178.199 41.2443C178.631 41.0909 179.003 40.8636 179.315 40.5625C179.628 40.2557 179.869 39.875 180.04 39.4205L181.983 39.9659C181.778 40.625 181.435 41.2045 180.952 41.7045C180.469 42.1989 179.872 42.5852 179.162 42.8636C178.452 43.1364 177.653 43.2727 176.767 43.2727Z" fill="white"/>
<path d="M88.7784 11.5C88.6612 11.1413 88.5067 10.82 88.315 10.5359C88.1268 10.2482 87.9013 10.0032 87.6385 9.80078C87.3793 9.59837 87.0845 9.44389 86.7543 9.33736C86.424 9.23082 86.0618 9.17756 85.6676 9.17756C85.0213 9.17756 84.4336 9.34446 83.9045 9.67827C83.3754 10.0121 82.9545 10.5039 82.642 11.1538C82.3295 11.8036 82.1733 12.6009 82.1733 13.5455C82.1733 14.4901 82.3313 15.2873 82.6474 15.9371C82.9634 16.587 83.3913 17.0788 83.9311 17.4126C84.4709 17.7464 85.0781 17.9134 85.7528 17.9134C86.3778 17.9134 86.9283 17.7802 87.4041 17.5138C87.8835 17.244 88.2564 16.864 88.5227 16.3739C88.7926 15.8803 88.9276 15.2997 88.9276 14.6321L89.3324 14.7173H86.0511V13.5455H90.206V14.7173C90.206 15.6158 90.0142 16.397 89.6307 17.0611C89.2507 17.7251 88.7251 18.2401 88.054 18.6058C87.3864 18.968 86.6193 19.1491 85.7528 19.1491C84.7869 19.1491 83.9382 18.9219 83.2067 18.4673C82.4787 18.0128 81.9105 17.3665 81.5021 16.5284C81.0973 15.6903 80.8949 14.696 80.8949 13.5455C80.8949 12.6825 81.0103 11.9066 81.2411 11.2177C81.4755 10.5252 81.8058 9.93572 82.2319 9.44922C82.658 8.96271 83.1623 8.58984 83.7447 8.33061C84.3271 8.07138 84.968 7.94176 85.6676 7.94176C86.2429 7.94176 86.7791 8.02876 87.2763 8.20277C87.777 8.37322 88.2227 8.61648 88.6133 8.93253C89.0075 9.24503 89.3359 9.61967 89.5987 10.0565C89.8615 10.4897 90.0426 10.9709 90.142 11.5H88.7784ZM92.4685 19V8.09091H99.0523V9.26278H93.7895V12.9489H98.7114V14.1207H93.7895V17.8281H99.1375V19H92.4685ZM100.837 9.26278V8.09091H109.019V9.26278H105.588V19H104.267V9.26278H100.837ZM116.597 8.09091V19H115.276V8.09091H116.597ZM118.649 9.26278V8.09091H126.831V9.26278H123.401V19H122.08V9.26278H118.649ZM142.293 13.5455C142.293 14.696 142.085 15.6903 141.67 16.5284C141.254 17.3665 140.684 18.0128 139.96 18.4673C139.236 18.9219 138.408 19.1491 137.478 19.1491C136.547 19.1491 135.72 18.9219 134.996 18.4673C134.271 18.0128 133.701 17.3665 133.286 16.5284C132.87 15.6903 132.662 14.696 132.662 13.5455C132.662 12.3949 132.87 11.4006 133.286 10.5625C133.701 9.72443 134.271 9.07812 134.996 8.62358C135.72 8.16903 136.547 7.94176 137.478 7.94176C138.408 7.94176 139.236 8.16903 139.96 8.62358C140.684 9.07812 141.254 9.72443 141.67 10.5625C142.085 11.4006 142.293 12.3949 142.293 13.5455ZM141.015 13.5455C141.015 12.6009 140.857 11.8036 140.541 11.1538C140.228 10.5039 139.804 10.0121 139.268 9.67827C138.735 9.34446 138.138 9.17756 137.478 9.17756C136.817 9.17756 136.219 9.34446 135.683 9.67827C135.15 10.0121 134.726 10.5039 134.41 11.1538C134.097 11.8036 133.941 12.6009 133.941 13.5455C133.941 14.4901 134.097 15.2873 134.41 15.9371C134.726 16.587 135.15 17.0788 135.683 17.4126C136.219 17.7464 136.817 17.9134 137.478 17.9134C138.138 17.9134 138.735 17.7464 139.268 17.4126C139.804 17.0788 140.228 16.587 140.541 15.9371C140.857 15.2873 141.015 14.4901 141.015 13.5455ZM153.165 8.09091V19H151.887L145.942 10.4347H145.835V19H144.514V8.09091H145.793L151.759 16.6776H151.865V8.09091H153.165Z" fill="white"/>
<path d="M41.5646 30.2111C41.5534 28.1627 42.4799 26.6167 44.3553 25.4781C43.306 23.9767 41.7209 23.1507 39.6278 22.9888C37.6465 22.8325 35.4809 24.1442 34.6883 24.1442C33.8511 24.1442 31.9311 23.0446 30.4242 23.0446C27.3098 23.0949 24 25.5283 24 30.479C24 31.9413 24.2679 33.452 24.8037 35.0111C25.5181 37.0595 28.0967 42.0827 30.7869 41.999C32.1935 41.9655 33.1869 40.9999 35.0176 40.9999C36.7925 40.9999 37.7134 41.999 39.2818 41.999C41.9943 41.9599 44.3274 37.3943 45.0083 35.3404C41.3692 33.6269 41.5646 30.3172 41.5646 30.2111ZM38.4055 21.0465C39.9292 19.2381 39.7897 17.5916 39.7451 17C38.3999 17.0781 36.8427 17.9153 35.9553 18.9479C34.9786 20.053 34.4037 21.4204 34.5265 22.9609C35.9832 23.0725 37.3116 22.3246 38.4055 21.0465Z" fill="white"/>
</svg>
