<svg width="240" height="59" viewBox="0 0 240 59" fill="none" xmlns="http://www.w3.org/2000/svg">
<rect width="220" height="59" rx="5" fill="black"/>
<path d="M82.1136 43V25.5455H88.0114C89.3807 25.5455 90.5 25.7926 91.3693 26.2869C92.2443 26.7756 92.892 27.4375 93.3125 28.2727C93.733 29.108 93.9432 30.0398 93.9432 31.0682C93.9432 32.0966 93.733 33.0312 93.3125 33.8722C92.8977 34.7131 92.2557 35.3835 91.3864 35.8835C90.517 36.3778 89.4034 36.625 88.0455 36.625H83.8182V34.75H87.9773C88.9148 34.75 89.6676 34.5881 90.2358 34.2642C90.804 33.9403 91.2159 33.5028 91.4716 32.9517C91.733 32.3949 91.8636 31.767 91.8636 31.0682C91.8636 30.3693 91.733 29.7443 91.4716 29.1932C91.2159 28.642 90.8011 28.2102 90.2273 27.8977C89.6534 27.5795 88.892 27.4205 87.9432 27.4205H84.2273V43H82.1136ZM99.0866 25.5455V43H97.0753V25.5455H99.0866ZM106.623 43.3068C105.793 43.3068 105.04 43.1506 104.364 42.8381C103.688 42.5199 103.151 42.0625 102.754 41.4659C102.356 40.8636 102.157 40.1364 102.157 39.2841C102.157 38.5341 102.305 37.9261 102.6 37.4602C102.896 36.9886 103.29 36.6193 103.785 36.3523C104.279 36.0852 104.825 35.8864 105.421 35.7557C106.023 35.6193 106.629 35.5114 107.237 35.4318C108.032 35.3295 108.677 35.2528 109.171 35.2017C109.671 35.1449 110.035 35.0511 110.262 34.9205C110.495 34.7898 110.612 34.5625 110.612 34.2386V34.1705C110.612 33.3295 110.381 32.6761 109.921 32.2102C109.467 31.7443 108.776 31.5114 107.85 31.5114C106.89 31.5114 106.137 31.7216 105.592 32.142C105.046 32.5625 104.663 33.0114 104.441 33.4886L102.532 32.8068C102.873 32.0114 103.327 31.392 103.896 30.9489C104.469 30.5 105.094 30.1875 105.771 30.0114C106.452 29.8295 107.123 29.7386 107.782 29.7386C108.202 29.7386 108.685 29.7898 109.231 29.892C109.782 29.9886 110.313 30.1903 110.825 30.4972C111.342 30.804 111.771 31.267 112.112 31.8864C112.452 32.5057 112.623 33.3352 112.623 34.375V43H110.612V41.2273H110.509C110.373 41.5114 110.146 41.8153 109.827 42.1392C109.509 42.4631 109.086 42.7386 108.558 42.9659C108.029 43.1932 107.384 43.3068 106.623 43.3068ZM106.93 41.5C107.725 41.5 108.396 41.3438 108.941 41.0312C109.492 40.7188 109.907 40.3153 110.185 39.821C110.469 39.3267 110.612 38.8068 110.612 38.2614V36.4205C110.526 36.5227 110.339 36.6165 110.049 36.7017C109.765 36.7812 109.435 36.8523 109.06 36.9148C108.691 36.9716 108.33 37.0227 107.978 37.0682C107.631 37.108 107.35 37.142 107.134 37.1705C106.612 37.2386 106.123 37.3494 105.668 37.5028C105.219 37.6506 104.856 37.875 104.577 38.1761C104.305 38.4716 104.168 38.875 104.168 39.3864C104.168 40.0852 104.427 40.6136 104.944 40.9716C105.467 41.3239 106.129 41.5 106.93 41.5ZM117.121 47.9091C116.78 47.9091 116.476 47.8807 116.209 47.8239C115.942 47.7727 115.757 47.7216 115.655 47.6705L116.166 45.8977C116.655 46.0227 117.087 46.0682 117.462 46.0341C117.837 46 118.169 45.8324 118.459 45.5312C118.754 45.2358 119.024 44.7557 119.268 44.0909L119.643 43.0682L114.803 29.9091H116.984L120.598 40.3409H120.734L124.348 29.9091H126.53L120.973 44.9091C120.723 45.5852 120.413 46.1449 120.044 46.5881C119.675 47.0369 119.246 47.3693 118.757 47.5852C118.274 47.8011 117.729 47.9091 117.121 47.9091ZM138.457 32.8409L136.651 33.3523C136.537 33.0511 136.369 32.7585 136.148 32.4744C135.932 32.1847 135.636 31.946 135.261 31.7585C134.886 31.571 134.406 31.4773 133.821 31.4773C133.02 31.4773 132.352 31.6619 131.818 32.0312C131.29 32.3949 131.026 32.858 131.026 33.4205C131.026 33.9205 131.207 34.3153 131.571 34.6051C131.935 34.8949 132.503 35.1364 133.276 35.3295L135.219 35.8068C136.389 36.0909 137.261 36.5256 137.835 37.1108C138.409 37.6903 138.696 38.4375 138.696 39.3523C138.696 40.1023 138.48 40.7727 138.048 41.3636C137.622 41.9545 137.026 42.4205 136.259 42.7614C135.491 43.1023 134.599 43.2727 133.582 43.2727C132.247 43.2727 131.142 42.983 130.267 42.4034C129.392 41.8239 128.838 40.9773 128.605 39.8636L130.514 39.3864C130.696 40.0909 131.04 40.6193 131.545 40.9716C132.057 41.3239 132.724 41.5 133.548 41.5C134.486 41.5 135.23 41.3011 135.781 40.9034C136.338 40.5 136.616 40.017 136.616 39.4545C136.616 39 136.457 38.6193 136.139 38.3125C135.821 38 135.332 37.767 134.673 37.6136L132.491 37.1023C131.293 36.8182 130.412 36.3778 129.849 35.7812C129.293 35.179 129.014 34.4261 129.014 33.5227C129.014 32.7841 129.222 32.1307 129.636 31.5625C130.057 30.9943 130.628 30.5483 131.349 30.2244C132.077 29.9006 132.901 29.7386 133.821 29.7386C135.116 29.7386 136.134 30.0227 136.872 30.5909C137.616 31.1591 138.145 31.9091 138.457 32.8409ZM147.417 29.9091V31.6136H140.633V29.9091H147.417ZM142.61 26.7727H144.621V39.25C144.621 39.8182 144.704 40.2443 144.869 40.5284C145.039 40.8068 145.255 40.9943 145.516 41.0909C145.783 41.1818 146.065 41.2273 146.36 41.2273C146.582 41.2273 146.763 41.2159 146.906 41.1932C147.048 41.1648 147.161 41.142 147.246 41.125L147.656 42.9318C147.519 42.983 147.329 43.0341 147.085 43.0852C146.84 43.142 146.531 43.1705 146.156 43.1705C145.587 43.1705 145.031 43.0483 144.485 42.804C143.945 42.5597 143.496 42.1875 143.138 41.6875C142.786 41.1875 142.61 40.5568 142.61 39.7955V26.7727ZM155.62 43.2727C154.438 43.2727 153.401 42.9915 152.509 42.429C151.623 41.8665 150.93 41.0795 150.43 40.0682C149.935 39.0568 149.688 37.875 149.688 36.5227C149.688 35.1591 149.935 33.9687 150.43 32.9517C150.93 31.9347 151.623 31.1449 152.509 30.5824C153.401 30.0199 154.438 29.7386 155.62 29.7386C156.802 29.7386 157.836 30.0199 158.722 30.5824C159.614 31.1449 160.308 31.9347 160.802 32.9517C161.302 33.9687 161.552 35.1591 161.552 36.5227C161.552 37.875 161.302 39.0568 160.802 40.0682C160.308 41.0795 159.614 41.8665 158.722 42.429C157.836 42.9915 156.802 43.2727 155.62 43.2727ZM155.62 41.4659C156.518 41.4659 157.256 41.2358 157.836 40.7756C158.415 40.3153 158.844 39.7102 159.123 38.9602C159.401 38.2102 159.54 37.3977 159.54 36.5227C159.54 35.6477 159.401 34.8324 159.123 34.0767C158.844 33.321 158.415 32.7102 157.836 32.2443C157.256 31.7784 156.518 31.5455 155.62 31.5455C154.722 31.5455 153.984 31.7784 153.404 32.2443C152.825 32.7102 152.396 33.321 152.117 34.0767C151.839 34.8324 151.7 35.6477 151.7 36.5227C151.7 37.3977 151.839 38.2102 152.117 38.9602C152.396 39.7102 152.825 40.3153 153.404 40.7756C153.984 41.2358 154.722 41.4659 155.62 41.4659ZM164.622 43V29.9091H166.565V31.8864H166.702C166.94 31.2386 167.372 30.7131 167.997 30.3097C168.622 29.9062 169.327 29.7045 170.111 29.7045C170.259 29.7045 170.443 29.7074 170.665 29.7131C170.886 29.7187 171.054 29.7273 171.168 29.7386V31.7841C171.099 31.767 170.943 31.7415 170.699 31.7074C170.46 31.6676 170.207 31.6477 169.94 31.6477C169.304 31.6477 168.736 31.7812 168.236 32.0483C167.741 32.3097 167.349 32.6733 167.06 33.1392C166.776 33.5994 166.634 34.125 166.634 34.7159V43H164.622ZM178.642 43.2727C177.381 43.2727 176.293 42.9943 175.378 42.4375C174.469 41.875 173.767 41.0909 173.273 40.0852C172.784 39.0739 172.54 37.8977 172.54 36.5568C172.54 35.2159 172.784 34.0341 173.273 33.0114C173.767 31.983 174.455 31.1818 175.335 30.608C176.222 30.0284 177.256 29.7386 178.438 29.7386C179.119 29.7386 179.793 29.8523 180.457 30.0795C181.122 30.3068 181.727 30.6761 182.273 31.1875C182.818 31.6932 183.253 32.3636 183.577 33.1989C183.901 34.0341 184.062 35.0625 184.062 36.2841V37.1364H173.972V35.3977H182.017C182.017 34.6591 181.869 34 181.574 33.4205C181.284 32.8409 180.869 32.3835 180.33 32.0483C179.795 31.7131 179.165 31.5455 178.438 31.5455C177.636 31.5455 176.943 31.7443 176.358 32.142C175.778 32.5341 175.332 33.0455 175.02 33.6761C174.707 34.3068 174.551 34.983 174.551 35.7045V36.8636C174.551 37.8523 174.722 38.6903 175.062 39.3778C175.409 40.0597 175.889 40.5795 176.503 40.9375C177.116 41.2898 177.83 41.4659 178.642 41.4659C179.17 41.4659 179.648 41.392 180.074 41.2443C180.506 41.0909 180.878 40.8636 181.19 40.5625C181.503 40.2557 181.744 39.875 181.915 39.4205L183.858 39.9659C183.653 40.625 183.31 41.2045 182.827 41.7045C182.344 42.1989 181.747 42.5852 181.037 42.8636C180.327 43.1364 179.528 43.2727 178.642 43.2727Z" fill="white"/>
<path d="M88.7784 11.5C88.6612 11.1413 88.5067 10.82 88.315 10.5359C88.1268 10.2482 87.9013 10.0032 87.6385 9.80078C87.3793 9.59837 87.0845 9.44389 86.7543 9.33736C86.424 9.23082 86.0618 9.17756 85.6676 9.17756C85.0213 9.17756 84.4336 9.34446 83.9045 9.67827C83.3754 10.0121 82.9545 10.5039 82.642 11.1538C82.3295 11.8036 82.1733 12.6009 82.1733 13.5455C82.1733 14.4901 82.3313 15.2873 82.6474 15.9371C82.9634 16.587 83.3913 17.0788 83.9311 17.4126C84.4709 17.7464 85.0781 17.9134 85.7528 17.9134C86.3778 17.9134 86.9283 17.7802 87.4041 17.5138C87.8835 17.244 88.2564 16.864 88.5227 16.3739C88.7926 15.8803 88.9276 15.2997 88.9276 14.6321L89.3324 14.7173H86.0511V13.5455H90.206V14.7173C90.206 15.6158 90.0142 16.397 89.6307 17.0611C89.2507 17.7251 88.7251 18.2401 88.054 18.6058C87.3864 18.968 86.6193 19.1491 85.7528 19.1491C84.7869 19.1491 83.9382 18.9219 83.2067 18.4673C82.4787 18.0128 81.9105 17.3665 81.5021 16.5284C81.0973 15.6903 80.8949 14.696 80.8949 13.5455C80.8949 12.6825 81.0103 11.9066 81.2411 11.2177C81.4755 10.5252 81.8058 9.93572 82.2319 9.44922C82.658 8.96271 83.1623 8.58984 83.7447 8.33061C84.3271 8.07138 84.968 7.94176 85.6676 7.94176C86.2429 7.94176 86.7791 8.02876 87.2763 8.20277C87.777 8.37322 88.2227 8.61648 88.6133 8.93253C89.0075 9.24503 89.3359 9.61967 89.5987 10.0565C89.8615 10.4897 90.0426 10.9709 90.142 11.5H88.7784ZM92.4685 19V8.09091H99.0523V9.26278H93.7895V12.9489H98.7114V14.1207H93.7895V17.8281H99.1375V19H92.4685ZM100.837 9.26278V8.09091H109.019V9.26278H105.588V19H104.267V9.26278H100.837ZM116.597 8.09091V19H115.276V8.09091H116.597ZM118.649 9.26278V8.09091H126.831V9.26278H123.401V19H122.08V9.26278H118.649ZM142.293 13.5455C142.293 14.696 142.085 15.6903 141.67 16.5284C141.254 17.3665 140.684 18.0128 139.96 18.4673C139.236 18.9219 138.408 19.1491 137.478 19.1491C136.547 19.1491 135.72 18.9219 134.996 18.4673C134.271 18.0128 133.701 17.3665 133.286 16.5284C132.87 15.6903 132.662 14.696 132.662 13.5455C132.662 12.3949 132.87 11.4006 133.286 10.5625C133.701 9.72443 134.271 9.07812 134.996 8.62358C135.72 8.16903 136.547 7.94176 137.478 7.94176C138.408 7.94176 139.236 8.16903 139.96 8.62358C140.684 9.07812 141.254 9.72443 141.67 10.5625C142.085 11.4006 142.293 12.3949 142.293 13.5455ZM141.015 13.5455C141.015 12.6009 140.857 11.8036 140.541 11.1538C140.228 10.5039 139.804 10.0121 139.268 9.67827C138.735 9.34446 138.138 9.17756 137.478 9.17756C136.817 9.17756 136.219 9.34446 135.683 9.67827C135.15 10.0121 134.726 10.5039 134.41 11.1538C134.097 11.8036 133.941 12.6009 133.941 13.5455C133.941 14.4901 134.097 15.2873 134.41 15.9371C134.726 16.587 135.15 17.0788 135.683 17.4126C136.219 17.7464 136.817 17.9134 137.478 17.9134C138.138 17.9134 138.735 17.7464 139.268 17.4126C139.804 17.0788 140.228 16.587 140.541 15.9371C140.857 15.2873 141.015 14.4901 141.015 13.5455ZM153.165 8.09091V19H151.887L145.942 10.4347H145.835V19H144.514V8.09091H145.793L151.759 16.6776H151.865V8.09091H153.165Z" fill="white"/>
<path d="M36.6484 28.4404L25.8721 17.6348L39.583 25.5059L36.6484 28.4404ZM23.0596 17C22.4248 17.332 22 17.9375 22 18.7236V40.2715C22 41.0576 22.4248 41.6631 23.0596 41.9951L35.5889 29.4951L23.0596 17ZM43.8213 28.0156L40.9453 26.3506L37.7373 29.5L40.9453 32.6494L43.8799 30.9844C44.7588 30.2861 44.7588 28.7139 43.8213 28.0156ZM25.8721 41.3652L39.583 33.4941L36.6484 30.5596L25.8721 41.3652Z" fill="white"/>
</svg>
